<svg xmlns="http://www.w3.org/2000/svg" width="18" height="17" viewBox="0 0 18 17" fill="none">
  <path d="M5.262 1.47177C5.40986 1.33863 5.49877 1.15221 5.50918 0.953515C5.51959 0.75482 5.45064 0.560128 5.3175 0.41227C5.18436 0.264412 4.99794 0.175499 4.79924 0.165091C4.60055 0.154682 4.40586 0.223631 4.258 0.35677L2.521 1.92077C1.784 2.58377 1.174 3.13277 0.754 3.63077C0.314 4.15577 0 4.71877 0 5.41477C0 6.10977 0.313 6.67277 0.754 7.19677C1.174 7.69577 1.784 8.24577 2.521 8.90777L4.258 10.4718C4.33121 10.5377 4.41669 10.5886 4.50956 10.6214C4.60243 10.6543 4.70086 10.6686 4.79924 10.6635C4.89763 10.6583 4.99403 10.6338 5.08296 10.5914C5.17188 10.549 5.25158 10.4895 5.3175 10.4163C5.38342 10.3431 5.43428 10.2576 5.46717 10.1647C5.50006 10.0718 5.51433 9.97341 5.50918 9.87503C5.50403 9.77664 5.47955 9.68024 5.43713 9.59131C5.39472 9.50239 5.33521 9.42269 5.262 9.35677L3.565 7.82977C2.777 7.12077 2.246 6.63977 1.902 6.23177C1.572 5.83877 1.5 5.60977 1.5 5.41477C1.5 5.21877 1.572 4.98977 1.902 4.59677C2.246 4.18777 2.777 3.70777 3.565 2.99877L5.262 1.47177ZM10.94 0.35977C11.0352 0.385086 11.1245 0.428918 11.2028 0.488761C11.2811 0.548604 11.3468 0.623286 11.3962 0.708538C11.4456 0.79379 11.4777 0.887942 11.4907 0.985613C11.5037 1.08328 11.4974 1.18256 11.472 1.27777L7.485 16.2778C7.45966 16.373 7.41581 16.4623 7.35596 16.5405C7.2961 16.6188 7.22143 16.6845 7.13618 16.7339C7.05094 16.7833 6.9568 16.8154 6.85914 16.8284C6.76148 16.8415 6.66221 16.8351 6.567 16.8098C6.47179 16.7844 6.38251 16.7406 6.30425 16.6807C6.22598 16.6209 6.16028 16.5462 6.11088 16.461C6.06148 16.3757 6.02935 16.2816 6.01633 16.1839C6.00331 16.0862 6.00965 15.987 6.035 15.8918L10.022 0.89177C10.0473 0.796545 10.0911 0.707241 10.151 0.628962C10.2108 0.550682 10.2855 0.484962 10.3708 0.435557C10.456 0.386152 10.5502 0.354029 10.6478 0.341025C10.7455 0.328022 10.8448 0.334391 10.94 0.35977ZM12.203 6.58277C12.3362 6.43508 12.5225 6.34633 12.7211 6.33601C12.9197 6.3257 13.1143 6.39467 13.262 6.52777L14.999 8.09077C15.736 8.75377 16.346 9.30377 16.766 9.80177C17.206 10.3258 17.52 10.8898 17.52 11.5848C17.52 12.2798 17.207 12.8438 16.766 13.3678C16.346 13.8658 15.736 14.4158 14.999 15.0778L13.262 16.6428C13.1887 16.7087 13.1032 16.7595 13.0103 16.7924C12.9173 16.8253 12.8188 16.8395 12.7204 16.8343C12.622 16.8291 12.5255 16.8046 12.4366 16.7621C12.3476 16.7196 12.2679 16.66 12.202 16.5868C12.1361 16.5135 12.0852 16.4279 12.0524 16.335C12.0195 16.2421 12.0053 16.1436 12.0105 16.0452C12.0157 15.9467 12.0402 15.8503 12.0827 15.7614C12.1251 15.6724 12.1847 15.5927 12.258 15.5268L13.955 14.0008C14.743 13.2908 15.274 12.8108 15.618 12.4018C15.948 12.0098 16.02 11.7798 16.02 11.5848C16.02 11.3898 15.948 11.1598 15.618 10.7678C15.274 10.3578 14.743 9.87777 13.955 9.16877L12.258 7.64177C12.1103 7.50861 12.0216 7.32224 12.0112 7.12366C12.0009 6.92507 12.0699 6.73052 12.203 6.58277Z" fill="white"/>
</svg>