<svg width="32" height="32" viewBox="0 0 32 32" fill="none" xmlns="http://www.w3.org/2000/svg">
<rect width="32" height="32" rx="8" fill="black"/>
<path d="M12.7065 7.56881C12.8669 7.40909 12.9633 7.18545 12.9746 6.94708C12.9859 6.70871 12.9111 6.47515 12.7667 6.29777C12.6223 6.12039 12.4201 6.01372 12.2047 6.00123C11.9892 5.98875 11.778 6.07146 11.6177 6.23119L9.73396 8.10747C8.9347 8.90284 8.27317 9.56146 7.81769 10.1589C7.34053 10.7887 7 11.4641 7 12.2991C7 13.1329 7.33944 13.8083 7.81769 14.4369C8.27317 15.0355 8.9347 15.6954 9.73396 16.4895L11.6177 18.3658C11.6971 18.4449 11.7898 18.5059 11.8905 18.5454C11.9912 18.5848 12.098 18.602 12.2047 18.5958C12.3114 18.5896 12.4159 18.5602 12.5123 18.5093C12.6088 18.4585 12.6952 18.3871 12.7667 18.2992C12.8382 18.2114 12.8933 18.1089 12.929 17.9975C12.9647 17.886 12.9802 17.768 12.9746 17.6499C12.969 17.5319 12.9424 17.4162 12.8964 17.3096C12.8504 17.2029 12.7859 17.1073 12.7065 17.0282L10.8662 15.1963C10.0116 14.3457 9.43573 13.7687 9.06267 13.2792C8.70479 12.8078 8.62671 12.533 8.62671 12.2991C8.62671 12.064 8.70479 11.7892 9.06267 11.3178C9.43573 10.8271 10.0116 10.2513 10.8662 9.40071L12.7065 7.56881ZM18.8642 6.23478C18.9674 6.26515 19.0643 6.31774 19.1492 6.38953C19.2341 6.46132 19.3053 6.55091 19.3589 6.65319C19.4125 6.75546 19.4473 6.86841 19.4614 6.98559C19.4755 7.10276 19.4686 7.22186 19.4411 7.33608L15.1173 25.3311C15.0898 25.4453 15.0423 25.5524 14.9773 25.6463C14.9124 25.7402 14.8315 25.819 14.739 25.8783C14.6466 25.9376 14.5445 25.9761 14.4386 25.9917C14.3327 26.0073 14.225 25.9997 14.1217 25.9693C14.0185 25.9389 13.9217 25.8863 13.8368 25.8145C13.7519 25.7427 13.6807 25.6531 13.6271 25.5508C13.5735 25.4486 13.5387 25.3356 13.5246 25.2185C13.5104 25.1013 13.5173 24.9822 13.5448 24.868L17.8686 6.87301C17.8961 6.75877 17.9436 6.65163 18.0085 6.55772C18.0734 6.46382 18.1544 6.38497 18.2468 6.3257C18.3393 6.26643 18.4414 6.2279 18.5473 6.2123C18.6532 6.1967 18.7609 6.20434 18.8642 6.23478ZM20.2338 13.7003C20.3783 13.5231 20.5804 13.4167 20.7957 13.4043C21.0111 13.3919 21.2221 13.4747 21.3823 13.6343L23.266 15.5094C24.0653 16.3048 24.7268 16.9646 25.1823 17.562C25.6595 18.1907 26 18.8673 26 19.7011C26 20.5348 25.6606 21.2114 25.1823 21.8401C24.7268 22.4375 24.0653 23.0973 23.266 23.8915L21.3823 25.769C21.3028 25.8481 21.2101 25.9091 21.1093 25.9485C21.0085 25.9879 20.9017 26.005 20.795 25.9987C20.6882 25.9925 20.5836 25.9631 20.4872 25.9121C20.3907 25.8612 20.3043 25.7897 20.2328 25.7018C20.1613 25.6139 20.1061 25.5113 20.0705 25.3998C20.0349 25.2883 20.0194 25.1701 20.025 25.0521C20.0307 24.934 20.0573 24.8183 20.1034 24.7116C20.1494 24.6049 20.214 24.5092 20.2935 24.4301L22.1338 22.5994C22.9884 21.7477 23.5643 21.1718 23.9373 20.6812C24.2952 20.2109 24.3733 19.935 24.3733 19.7011C24.3733 19.4671 24.2952 19.1912 23.9373 18.7209C23.5643 18.2291 22.9884 17.6532 22.1338 16.8027L20.2935 14.9708C20.1333 14.811 20.0371 14.5874 20.0259 14.3492C20.0147 14.111 20.0895 13.8776 20.2338 13.7003Z" fill="white"/>
</svg>
